#!OML:ASF F:\VICON\USERDATA\INSTALL\rory3\rory3.ASF
:FULLY-SPECIFIED
:DEGREES
48
root 0.3880975705280277 17.852100659091366 22.7645344797538 -3.3125476657333572 -1.8711012209942495 -7.557127906583192
lfemur -18.696398666701832 -1.4018687970868542 -13.515843335888878
ltibia 26.419548903397917
lfoot -6.589499261883171 1.531282592141602
ltoes -11.977980893008247
rfemur 1.734245780749383 6.552132485463252 32.45377557978223
rtibia 38.06262003446838
rfoot -1.4947986139662044 -10.791631494613188
rtoes 6.55832374686843
lowerback 1.0 1.6729937460440922 5.800176099002538
upperback 0.4021363389188402 3.343505322179058 2.123036857142912
thorax -4.854451276992005 1.6552796805822734 -1.1119225363257728
lowerneck -16.658773995849316 -3.1596886509904474 -1.2310801566856067
upperneck 21.117122394238972 -4.1346778774390645 0.537464290307493
head 9.582002313055547 -1.9713975610825218 -0.14449287108478379
lclavicle -1.042900172070885e-15 -3.968803690440809e-16
lhumerus -35.0432745977222 2.969445241953757 84.4228459214941
lradius 24.780362156068502
lwrist 7.368237660247774
lhand -27.313098880225983 23.368197414687266
lfingers nan
lthumb -0.9083970309044861 52.852997278683375
rclavicle -1.1152893488820596e-15 -4.531622523036456e-16
rhumerus -25.839009085577775 -13.921962732328646 -77.71418741395438
rradius 29.43216529534411
rwrist 5.924322777211083
rhand -17.52616865213743 1.0
rfingers nan
rthumb 8.614968275917624 -7.9639936217451135
49
root 0.40576592233022396 17.865356303303823 23.115861785968512 -3.0619129894787993 -1.5340326209015356 -8.214838441219532
lfemur -17.61230428928958 -1.602198333567744 -13.520185117227534
ltibia 23.854013858116545
lfoot -6.610262899586914 0.7121253645595604
ltoes -10.757954311982756
rfemur 0.2710649230780007 6.257799833107175 32.57781185310838
rtibia 41.60088844830179
rfoot -1.4767900010763935 -11.345079026155936
rtoes 7.2686902767796875
lowerback 1.0 1.6578722760688729 6.249620675599706
upperback 0.3508353253067196 3.387820680033811 2.181246309311085
thorax -4.849723858224751 1.6235812366357902 -1.3855017744923201
lowerneck -16.60646695186471 -3.194223024401668 -1.289875195532662
upperneck 21.282052725463387 -4.197719405741758 0.5935097082630904
head 9.650212809850583 -1.9955150657871976 -0.13777465436512396
lclavicle -1.0419700960122425e-15 -3.965422700911301e-16
lhumerus -34.65984495387715 2.748326995806817 84.3526291412228
lradius 25.24493220152643
lwrist 7.193678223441342
lhand -27.25908672433761 23.517491019937136
lfingers nan
lthumb -0.8837812904944116 52.9728360740342
rclavicle -1.1111824717021532e-15 -4.501200614312314e-16
rhumerus -25.998725323795487 -13.25361564762882 -78.14039511415423
rradius 29.348087616502877
rwrist 5.730488208074464
rhand -17.494436927136828 1.0
rfingers nan
rthumb 8.710105414149771 -7.965722454876024
50
root 0.42338229832441 17.87423997232675 23.552190587629465 -3.096774603238205 -1.4577691192233906 -8.252092159453177
lfemur -15.990440483180834 -1.8292240491601346 -14.330043476575996
ltibia 22.923612769835973
lfoot -7.020651228718593 -0.5005085748039547
ltoes -10.102574457821829
rfemur -1.4333176732036481 5.683566827627946 32.016222604763044
rtibia 45.800832722826
rfoot -1.8711213454892945 -11.330093748767094
rtoes 7.660406040359584
lowerback 1.0 1.683943345821516 6.21300142627603
upperback 0.340222634972307 3.4119259439912364 2.155402174004575
thorax -4.8299510486990185 1.6111873649410504 -1.5344463649527937
lowerneck -16.596674601517986 -3.2198050332443677 -1.3278522909681334
upperneck 21.34709987550874 -4.2452466450628075 0.6785287733067316
head 9.671825471905658 -2.014882272005879 -0.11349702589180588
lclavicle -1.044688883237554e-15 -3.996686211780547e-16
lhumerus -34.05035935170001 2.1688955688846576 84.31953150243342
lradius 25.742365161172728
lwrist 7.004767021445295
lhand -27.130255937014702 23.73777832200896
lfingers nan
lthumb -0.7564436843694455 53.24366795998647
rclavicle -1.1039661026376142e-15 -4.449355561724382e-16
rhumerus -26.19118972643111 -12.935757351734907 -78.6630078350347
rradius 29.057507208760033
rwrist 5.496647701601058
rhand -17.465847613867776 1.0
rfingers nan
rthumb 8.753646443502365 -8.080059781038415
51
root 0.4368153540656326 17.867926582043786 24.825841170379675 -3.237040591341448 -1.2151899021176398 -6.299756267040603
lfemur -13.764037888996043 -2.1409125568373324 -16.493081428861508
ltibia 22.60615477604994
lfoot -7.238590350785934 -1.0257336301413427
ltoes -8.700836669103822
rfemur -3.4370185704782905 4.85639253264756 29.771863195056376
rtibia 50.17452523704783
rfoot -2.5589947101659387 -10.689768313496973
rtoes 8.046902273076473
lowerback 1.0 1.5600833309665139 4.804339118597839
upperback 0.3545647539365511 2.910179321383496 1.7434773691536685
thorax -4.822816537043899 1.4239978139279639 -1.152263446940231
lowerneck -16.646315640420504 -3.2272913379565074 -1.3527699751264535
upperneck 21.370816371828703 -4.264478184559171 0.7653705473758063
head 9.663154698088123 -2.0237201449843654 -0.0787952001592066
lclavicle -1.0464729495416701e-15 -4.0145636519914013e-16
lhumerus -33.2800023486393 1.362903839413546 84.2838990081009
lradius 26.31192665126926
lwrist 6.852049505983556
lhand -27.11879072528894 23.71001860027565
lfingers nan
lthumb -0.7380516677660639 53.24167129187752
rclavicle -1.0998427137443853e-15 -4.4181740852897737e-16
rhumerus -26.48381668831871 -13.180544994745624 -79.27814338189805
rradius 28.614513464645214
rwrist 5.2018208276671345
rhand -17.483676615324338 1.0
rfingers nan
rthumb 8.748081172776468 -8.28535280159031
